<?xml version="1.0" encoding="UTF-8"?>
<svg id="Layer_1" data-name="Layer 1" xmlns="http://www.w3.org/2000/svg" version="1.1" xmlns:xlink="http://www.w3.org/1999/xlink" viewBox="0 0 1000 1000">
  <defs>
    <style>
      .cls-1 {
        fill: url(#linear-gradient);
      }

      .cls-1, .cls-2 {
        stroke-width: 0px;
      }

      .cls-2 {
        fill: #fff;
      }
    </style>
    <linearGradient id="linear-gradient" x1="129.9" y1="131.2" x2="819" y2="820.3" gradientTransform="translate(1.3 .5)" gradientUnits="userSpaceOnUse">
      <stop offset="0" stop-color="#3d66f3"/>
      <stop offset="1" stop-color="#632cd4"/>
    </linearGradient>
  </defs>
  <g id="Shape_5" data-name="Shape 5">
    <path class="cls-1" d="M987.1,307.7c3-90.4-29.5-166.7-98.4-226.3-51.1-44.3-111.8-67.3-178.7-68.3-128.8-1.9-257.7-.7-386.5-.4-21.7,0-43.5,1.2-65,4-54.3,7.1-103.2,27.9-145,63.5C46.3,137.4,13.6,211.3,13.1,298.8c-.7,135.3-.3,270.6,0,405.9.1,55.9,16.2,110.8,47.6,157,55.2,81.4,133.4,123.8,230.9,125.1,142.5,1.9,285.1.5,427.7.5,5.2,0,10.4-.3,15.6-1,67-8.4,124.5-35.8,172.4-84.4,96.6-98,106.9-254.4,22.8-363.3-10.3-13.3-21.1-26.2-32.7-40.6,2.4-1.7,4-2.5,5.1-3.7,51.7-51.6,82.1-113.5,84.5-186.7Z"/>
  </g>
  <g id="Shape_7" data-name="Shape 7">
    <path class="cls-2" d="M754.7,500c8.2-11.2,15-23.4,20.2-36.2,24.8-61.7,10.4-132-36.8-179.2-31.5-31.5-73.2-48.8-117.4-48.8h-282.2c-13.5,0-24.4,11-24.4,24.5s11,24.5,24.4,24.5h282.2c31.2,0,60.6,12.3,82.8,34.5,33.4,33.4,43.6,83,26.1,126.5-5.6,13.9-13.8,26.5-24.3,37.5l-16.2,16.9,16.2,16.9c10.5,10.9,18.6,23.6,24.3,37.5,17.5,43.4,7.3,93.1-26.1,126.5-22.2,22.2-51.7,34.5-82.8,34.5h-282.2c-13.5,0-24.4,11-24.4,24.5s11,24.5,24.4,24.5h282.2c44.2,0,85.9-17.3,117.4-48.8,47.2-47.2,61.7-117.6,36.8-179.2-5.2-12.8-11.9-25-20.2-36.2Z"/>
  </g>
  <g id="Shape_6" data-name="Shape 6">
    <path class="cls-2" d="M619,520.9h-.2s-200,0-200,0c-4.2,0-4.6-.4-4.6-4.6v-33.8c0-1.4,0-3.3,6.2-3.3h198.1c22.5,0,43.6-8.8,59.6-24.8,16-16,24.8-37.2,24.8-59.6,0-22.5-8.8-43.7-24.8-59.6-16-16-37.1-24.8-59.6-24.8h-292.6c-9.9-20.1-30.6-33.2-53.3-33.2-32.8,0-59.4,26.7-59.4,59.4s26.7,59.5,59.4,59.5,43.4-13.1,53.3-33.2h292.6c8.4,0,16.4,3.3,22.5,9.4,6,6,9.4,14,9.4,22.5,0,8.5-3.3,16.4-9.4,22.5-6.1,6.1-13.1,9-22.6,9.4h-206.2c-27.9,0-50.6,22.7-50.6,50.6v45.7c0,27.9,22.7,50.6,50.6,50.6h206.3c8.6,0,16.4,3.2,22.5,9.4,12.4,12.4,12.4,32.6,0,45-6,6-14,9.4-22.5,9.4h-292.6c-9.9-20.1-30.6-33.2-53.3-33.2-32.8,0-59.4,26.7-59.4,59.4s26.7,59.4,59.4,59.4,43.4-13.1,53.3-33.2h292.6c22.5,0,43.6-8.8,59.6-24.8,16-16,24.8-37.2,24.8-59.6,0-22.5-8.8-43.7-24.8-59.6-16.1-16.1-33.8-23.5-59.2-24.8ZM272.7,352.9c-9,0-16.3-7.3-16.3-16.3s7.3-16.3,16.3-16.3,16.2,7.2,16.3,16.1c0,.1,0,.2,0,.3,0,8.9-7.4,16.2-16.3,16.2ZM272.7,679.7c-9,0-16.3-7.3-16.3-16.3s7.3-16.3,16.3-16.3,16.3,7.3,16.3,16.3-7.3,16.3-16.3,16.3Z"/>
  </g>
  <g id="Shape_5-2" data-name="Shape 5">
    <path class="cls-1" d="M987.1,307.7c3-90.4-29.5-166.7-98.4-226.3-51.1-44.3-111.8-67.3-178.7-68.3-128.8-1.9-257.7-.7-386.5-.4-21.7,0-43.5,1.2-65,4-54.3,7.1-103.2,27.9-145,63.5C46.3,137.4,13.6,211.3,13.1,298.8c-.7,135.3-.3,270.6,0,405.9.1,55.9,16.2,110.8,47.6,157,55.2,81.4,133.4,123.8,230.9,125.1,142.5,1.9,285.1.5,427.7.5,5.2,0,10.4-.3,15.6-1,67-8.4,124.5-35.8,172.4-84.4,96.6-98,106.9-254.4,22.8-363.3-10.3-13.3-21.1-26.2-32.7-40.6,2.4-1.7,4-2.5,5.1-3.7,51.7-51.6,82.1-113.5,84.5-186.7Z"/>
  </g>
  <g id="Shape_7-2" data-name="Shape 7">
    <path class="cls-2" d="M754.7,500c8.2-11.2,15-23.4,20.2-36.2,24.8-61.7,10.4-132-36.8-179.2-31.5-31.5-73.2-48.8-117.4-48.8h-282.2c-13.5,0-24.4,11-24.4,24.5s11,24.5,24.4,24.5h282.2c31.2,0,60.6,12.3,82.8,34.5,33.4,33.4,43.6,83,26.1,126.5-5.6,13.9-13.8,26.5-24.3,37.5l-16.2,16.9,16.2,16.9c10.5,10.9,18.6,23.6,24.3,37.5,17.5,43.4,7.3,93.1-26.1,126.5-22.2,22.2-51.7,34.5-82.8,34.5h-282.2c-13.5,0-24.4,11-24.4,24.5s11,24.5,24.4,24.5h282.2c44.2,0,85.9-17.3,117.4-48.8,47.2-47.2,61.7-117.6,36.8-179.2-5.2-12.8-11.9-25-20.2-36.2Z"/>
  </g>
  <g id="Shape_6-2" data-name="Shape 6">
    <path class="cls-2" d="M619,520.9h-.2s-200,0-200,0c-4.2,0-4.6-.4-4.6-4.6v-33.8c0-1.4,0-3.3,6.2-3.3h198.1c22.5,0,43.6-8.8,59.6-24.8,16-16,24.8-37.2,24.8-59.6,0-22.5-8.8-43.7-24.8-59.6-16-16-37.1-24.8-59.6-24.8h-292.6c-9.9-20.1-30.6-33.2-53.3-33.2-32.8,0-59.4,26.7-59.4,59.4s26.7,59.5,59.4,59.5,43.4-13.1,53.3-33.2h292.6c8.4,0,16.4,3.3,22.5,9.4,6,6,9.4,14,9.4,22.5,0,8.5-3.3,16.4-9.4,22.5-6.1,6.1-13.1,9-22.6,9.4h-206.2c-27.9,0-50.6,22.7-50.6,50.6v45.7c0,27.9,22.7,50.6,50.6,50.6h206.3c8.6,0,16.4,3.2,22.5,9.4,12.4,12.4,12.4,32.6,0,45-6,6-14,9.4-22.5,9.4h-292.6c-9.9-20.1-30.6-33.2-53.3-33.2-32.8,0-59.4,26.7-59.4,59.4s26.7,59.4,59.4,59.4,43.4-13.1,53.3-33.2h292.6c22.5,0,43.6-8.8,59.6-24.8,16-16,24.8-37.2,24.8-59.6,0-22.5-8.8-43.7-24.8-59.6-16.1-16.1-33.8-23.5-59.2-24.8ZM272.7,352.9c-9,0-16.3-7.3-16.3-16.3s7.3-16.3,16.3-16.3,16.2,7.2,16.3,16.1c0,.1,0,.2,0,.3,0,8.9-7.4,16.2-16.3,16.2ZM272.7,679.7c-9,0-16.3-7.3-16.3-16.3s7.3-16.3,16.3-16.3,16.3,7.3,16.3,16.3-7.3,16.3-16.3,16.3Z"/>
  </g>
</svg>